<svg role="img" xmlns="http://www.w3.org/2000/svg" viewBox="0 0 238 157" class="css-1l7twfa"><path d="M203.448 113.803C203.448 113.365 203.806 113.007 204.245 113.007H212.833C213.272 113.007 213.631 113.365 213.631 113.803V116.885H215.513V113.803C215.513 112.33 214.309 111.128 212.833 111.128H204.245C202.77 111.128 201.566 112.33 201.566 113.803V116.885H203.448V113.803Z" fill="black"></path><path d="M232.665 116.885H215.505H213.623H203.448H201.566H184.405C181.471 116.885 179.07 119.282 179.07 122.212V151.291C179.07 154.221 181.471 156.618 184.405 156.618H232.657C235.592 156.618 237.992 154.221 237.992 151.291V122.212C238 119.282 235.6 116.885 232.665 116.885Z" fill="#7446AF"></path><path d="M60.2777 18.9859H60.3016H61.426C61.0831 18.7072 60.796 18.3409 60.6046 17.9109C59.9348 16.414 60.5966 14.6543 62.0958 13.9775C62.1995 13.9297 62.3031 13.8899 62.4068 13.858C63.0447 13.5395 63.5391 12.9503 63.6906 12.1939C63.9538 10.888 63.1085 9.62198 61.8087 9.35922C61.721 9.34329 61.6413 9.32737 61.5535 9.31941C61.5535 9.31941 57.7259 9.00091 55.5091 6.40513C55.23 6.15033 54.9907 5.83979 54.8073 5.48944C52.2874 7.79857 51.4023 11.5489 52.8775 14.8374C53.7467 16.7803 55.2858 18.2135 57.0959 18.9859H58.4117H60.2777Z" fill="#FF5D5D"></path><path d="M61.5695 9.32738C61.6493 9.33534 61.737 9.3433 61.8247 9.36719C63.1245 9.62995 63.9618 10.896 63.7066 12.2018C63.5551 12.9583 63.0607 13.5475 62.4228 13.866C62.3191 13.8979 62.2154 13.9377 62.1118 13.9854C60.6206 14.6623 59.9507 16.422 60.6286 17.9189C60.8199 18.3489 61.107 18.7152 61.4499 18.9939H62.1277H63.4754C63.5232 18.97 63.5711 18.954 63.6189 18.9302C64.1293 18.6992 64.5997 18.4285 65.0304 18.11C68.0925 15.8964 69.2966 11.7639 67.6858 8.17281C66.5933 5.73629 64.4562 4.09601 62.04 3.56252C62.04 3.56252 61.2984 3.20421 60.8917 2.51943C60.1262 0.807495 58.1246 0.0510572 56.4261 0.815458C54.7276 1.57986 53.9621 3.58641 54.7276 5.29835C54.7595 5.37001 54.7914 5.43371 54.8313 5.49741C55.0147 5.84776 55.2539 6.1583 55.533 6.4131C57.7419 9.00888 61.5695 9.32738 61.5695 9.32738Z" fill="black"></path><path d="M12.6951 10.9039L12.3682 10.8163C11.1481 10.1793 9.69682 8.69033 9.69682 8.69033L9.36988 8.33202C9.00306 7.91797 8.56448 7.58354 8.07007 7.34467C7.96641 7.26504 7.84679 7.20931 7.71123 7.17746L7.65541 7.16949C7.2886 7.04209 6.90583 6.96247 6.51509 6.93858L1.07664 5.81587C0.59021 5.71235 0.119728 6.03085 0.0160628 6.51657C-0.0796284 7.00228 0.231368 7.48003 0.717798 7.58354L3.34931 8.12499C2.40834 9.04864 1.92191 10.4102 2.16912 11.8116C2.50403 13.7306 4.09889 15.1161 5.94892 15.2514L11.8977 16.414L25.2068 22.9432C25.2068 22.9432 25.2945 22.983 25.4221 23.0467L25.5975 23.1343C25.6214 23.1423 25.6374 23.1423 25.6613 23.1582C26.0281 23.3254 26.6501 23.5563 27.4555 23.7872L29.5448 15.5381L12.6951 10.9039Z" fill="#FF5D5D"></path><path d="M86.7442 43.9643L86.7681 43.9564L86.6485 43.7812C86.473 43.4706 86.2657 43.176 86.0345 42.8973L75.9869 25.5391L75.4686 24.6473C75.2851 24.3606 75.0539 24.0182 74.7748 23.636V23.6122C74.7269 23.5564 74.6791 23.4927 74.6233 23.429C74.5037 23.2777 74.3841 23.1264 74.2565 22.9672V23.015C72.534 21.1199 69.6952 18.978 65.6203 18.978H63.4593H62.1117H61.4338H60.3095H60.2776H58.4196H57.1038H54.9667H51.2906L50.549 19.0098L29.5368 15.5302L27.4475 23.7794L41.9766 27.9915L42.168 28.0473C42.9495 28.2941 47.144 30.3166 46.7133 35.7311L43.1329 68.1226H60.2696H77.4063L77.3904 66.9919L76.6328 51.6481L76.8003 51.6959C76.8003 51.6959 76.888 51.7198 77.0315 51.7516L77.2149 51.7994C77.2388 51.8074 77.2548 51.8074 77.2787 51.8074C77.6535 51.887 78.2595 51.9905 79.0331 52.0463C79.5275 52.2851 80.0617 52.4603 80.6279 52.5479L80.8432 52.6196L80.8193 52.5718C81.0585 52.6036 81.2977 52.6196 81.537 52.6196C84.7905 52.6196 87.43 49.968 87.43 46.7034C87.4379 45.7081 87.1748 44.7845 86.7442 43.9643Z" fill="#34E0A1"></path><path d="M66.9681 143.289H75.4049V143.894C75.8594 141.027 76.1943 138.232 76.4335 135.541H66.2424L66.9681 143.289Z" fill="white"></path><path d="M60.2618 68.1225H43.1331L44.8316 93.9051C44.8316 93.9051 45.5971 99.3037 45.334 104.272H57.3113L58.348 92.1693C58.6031 90.0273 60.2379 90.1866 60.2379 90.1866C60.2458 90.1866 60.2538 90.1866 60.2698 90.1866C60.2777 90.1866 60.2857 90.1866 60.2937 90.1866C60.2937 90.1866 61.9284 90.0273 62.1916 92.1693L63.3239 104.272H75.2295C74.9663 99.3037 75.7319 93.9051 75.7319 93.9051L77.4304 68.1225L77.3746 66.9918L77.3985 68.1225H60.2618Z" fill="black"></path><path d="M45.1584 143.591V143.289H53.954L54.6159 135.541H44.1616C44.4008 138.137 44.7278 140.836 45.1584 143.591Z" fill="white"></path><path d="M45.31 104.67V104.686C45.2302 105.913 45.0867 107.099 44.8475 108.166C44.4328 111.407 43.8746 116.176 43.7151 119.361C43.5317 123.78 43.6035 129.354 44.1697 135.533H54.6239L57.3113 104.264H45.3339C45.3259 104.408 45.318 104.543 45.31 104.67Z" fill="#FF5D5D"></path><path d="M66.2425 135.549H76.4336C76.9918 129.37 77.0396 123.788 76.8562 119.377C76.6888 116.192 76.1306 111.415 75.7159 108.174C75.4767 107.107 75.3331 105.921 75.2534 104.694L75.2454 104.67C75.2374 104.535 75.2295 104.408 75.2215 104.272H63.3159L66.2425 135.549Z" fill="#FF5D5D"></path><path d="M45.1584 143.591V155.941H45.1664C45.1903 156.164 45.2701 156.371 45.4216 156.61H54.6797C54.6797 156.61 55.6446 156.18 55.7084 155.2C55.7164 155.001 55.6845 154.778 55.6127 154.532C55.5569 154.364 55.4772 154.173 55.3735 153.982L53.9541 150.288V143.297H45.1584V143.591Z" fill="#004F32"></path><path d="M66.968 143.289V150.463L65.6922 153.974C65.5885 154.173 65.5087 154.356 65.4609 154.524C65.3891 154.77 65.3572 154.993 65.3652 155.192C65.429 156.18 66.346 156.602 66.346 156.602H75.1496C75.2852 156.355 75.3649 156.148 75.3889 155.933H75.3968V143.886V143.281H66.968V143.289Z" fill="#004F32"></path><path d="M208.144 118.597C206.717 110.595 207.363 100.458 207.363 100.458C207.658 98.0695 207.897 95.8958 208.097 93.9211C209.62 85.0349 209.779 76.1965 209.787 73.3778H207.132L176.048 73.3619L175.41 78.3384L171.734 101.892C171.08 108.031 172.38 113.318 172.38 113.318L177.946 149.022V149.03H181.869H184.038H184.7C188.209 131.17 184.349 110.889 184.349 110.889C183.241 107.035 184.349 105.602 184.349 105.602L189.7 94.3351V94.3272L189.852 94.0166C190.21 93.3318 191.247 91.819 193.025 92.7665C193.791 93.6185 194.11 94.9005 194.11 94.9005L201.263 149.038H206.765C208.089 144.738 209.572 126.599 208.144 118.597Z" fill="white"></path><path d="M181.869 149.022H177.946C177.946 149.053 177.938 149.077 177.938 149.109L169.669 153.743C169.637 153.751 168.919 153.966 168.584 154.619C168.488 154.81 168.417 155.033 168.417 155.296C168.409 155.678 168.52 156.148 168.831 156.721H177.26H177.675H180.705C182.691 156.721 183.99 157.008 184.397 155.328C184.397 155.32 184.397 155.304 184.397 155.296L184.429 154.619L184.7 149.014H184.038H181.869V149.022Z" fill="#FF5D5D"></path><path d="M199.548 154.07C199.461 154.269 199.397 154.452 199.357 154.627C199.301 154.874 199.269 155.105 199.285 155.304C199.333 156.299 200.091 156.729 200.091 156.729H207.307C207.515 156.283 207.562 155.965 207.459 155.439H207.467L206.757 149.014H201.263L199.548 154.07Z" fill="#FF5D5D"></path><path d="M209.787 73.3698L209.436 69.5797L209.077 65.6382L206.773 33.0318C205.824 24.058 197.866 23.5564 194.788 23.6997H194.78C194.58 23.7077 194.397 23.7236 194.245 23.7316C194.205 23.7316 194.158 23.7395 194.11 23.7475C194.102 23.7475 194.094 23.7475 194.086 23.7475C194.046 23.7554 194.006 23.7554 193.958 23.7554C193.799 23.7714 193.703 23.7873 193.639 23.7953L193.575 23.8032L193.416 23.8191L190.944 24.0341L187.364 24.3447L184.293 24.6154L174.102 25.4992V34.1624L177.978 35.2613C179.461 36.6945 179.804 38.6851 179.684 40.8987L179.381 43.59L176.048 73.3539L207.132 73.3698L206.789 69.5797L207.132 72.4302C207.132 72.4302 207.14 72.7726 207.132 73.3698H209.787Z" fill="#00AA6C"></path><path d="M207.124 72.4302L206.781 69.5797L207.132 73.3698C207.132 72.7726 207.124 72.4302 207.124 72.4302Z" fill="#00AA6C"></path><path d="M190.155 22.991C189.477 21.4941 190.147 19.7264 191.646 19.0496C191.749 19.0018 191.853 18.962 191.957 18.9301C192.603 18.6116 193.097 18.0224 193.249 17.258C193.512 15.9522 192.658 14.6782 191.351 14.4234C191.263 14.4074 191.183 14.3915 191.095 14.3835H181.941C181.447 16.1592 181.542 18.11 182.364 19.9175C183.36 22.1231 185.218 23.6678 187.364 24.3446L190.944 24.0341C190.617 23.7554 190.346 23.413 190.155 22.991Z" fill="#FFCCCC"></path><path d="M197.26 13.221C196.087 10.6253 193.727 8.94517 191.103 8.52316C189.58 8.27632 187.97 8.45946 186.454 9.14423C185.657 9.50255 184.947 9.97233 184.333 10.5297C183.169 11.5808 182.356 12.9264 181.949 14.3995H191.103C191.191 14.4075 191.271 14.4154 191.359 14.4393C192.666 14.7021 193.52 15.9681 193.257 17.274C193.105 18.0304 192.611 18.6276 191.965 18.9461C191.861 18.9779 191.757 19.0177 191.654 19.0655C190.155 19.7423 189.485 21.51 190.162 23.007C190.354 23.421 190.625 23.7714 190.952 24.05L193.424 23.8351L193.583 23.8271C193.942 23.636 194.285 23.429 194.604 23.1981C197.674 20.9686 198.878 16.8121 197.26 13.221Z" fill="#7446AF"></path><path d="M174.102 25.4992V34.1704L158.784 31.8692L160.418 24.5039L174.102 25.4992Z" fill="#FFCCCC"></path><path d="M146.639 22.6407L146.28 22.6089C144.9 22.1709 143.146 20.881 143.146 20.881L142.747 20.5705C142.301 20.2121 141.783 19.9414 141.232 19.7822C141.113 19.7185 140.977 19.6787 140.834 19.6707H140.778C140.379 19.599 139.972 19.5831 139.566 19.6309L133.736 19.4239C133.218 19.4079 132.78 19.814 132.764 20.3316C132.748 20.8491 133.154 21.2871 133.673 21.303L136.496 21.4065C135.682 22.5292 135.411 24.0103 135.913 25.4117C136.591 27.3306 138.481 28.4772 140.427 28.2941L146.782 28.4533L161.702 32.8566C161.702 32.8566 161.798 32.8884 161.942 32.9283L162.133 32.984C162.157 32.984 162.181 32.992 162.205 32.992C162.619 33.0955 163.297 33.2308 164.166 33.3264L164.884 24.48L146.639 22.6407Z" fill="#FFCCCC"></path><path d="M124.351 36.2645C123.609 35.086 122.365 34.4252 121.073 34.3615L122.636 32.2434C122.923 31.8533 122.844 31.3039 122.453 31.0092C122.062 30.7226 121.512 30.8022 121.225 31.2003L117.995 35.5797C117.724 35.8584 117.501 36.161 117.325 36.4954L117.294 36.5352C117.214 36.6467 117.166 36.7661 117.142 36.8856C116.943 37.3792 116.839 37.9207 116.839 38.4542V38.924C116.839 38.924 116.759 40.9544 116.281 42.2205L116.097 42.4991L114.447 45.071L116.648 55.0162L120.284 45.9788L123.856 41.2331C125.108 39.9193 125.372 37.8729 124.351 36.2645Z" fill="white"></path><path d="M79.057 73.967L79.1686 67.8518L79.3201 65.3357L74.2007 65.3277L74.711 70.6705L73.7621 76.2761C73.2677 77.9483 73.9535 79.8115 75.5324 80.7351C76.7923 81.4757 78.2994 81.4279 79.4796 80.7431L79.0331 73.967H79.057Z" fill="white"></path><path d="M80.3328 38.8921C80.4365 39.2903 80.5561 39.6725 80.6917 40.0467C81.2499 41.5596 82.1031 42.8893 83.1637 44.012C84.0488 44.9436 85.0775 45.7319 86.2019 46.3291C86.3614 46.4087 86.5129 46.4884 86.6724 46.568C86.7282 46.5919 86.776 46.6158 86.8319 46.6397C89.1763 47.7066 91.8716 48.0251 94.5589 47.3404C99.5189 46.0743 102.908 41.8303 103.323 37.013H103.331L104.782 29.0266L105.595 24.5517L105.803 23.3971L106.449 19.814C106.656 19.1531 106.784 18.4763 106.823 17.7676C106.863 16.9316 106.783 16.0796 106.568 15.2196C105.404 10.6651 100.763 7.91004 96.1937 9.07256C93.4585 9.77326 91.3772 11.7161 90.3964 14.1447H90.3884L81.3775 30.4121L81.3854 30.42C80.4524 32.1399 79.9341 34.0908 79.9501 36.1132C79.982 37.0289 80.0936 37.9605 80.3328 38.8921Z" fill="black"></path><path d="M102.023 154.277C101.943 154.46 101.887 154.627 101.847 154.794C101.792 155.025 101.768 155.24 101.776 155.423C101.824 156.339 102.517 156.737 102.517 156.737H109.176C109.367 156.323 109.415 156.029 109.319 155.551H109.327L108.673 149.619H103.394L102.023 154.277Z" fill="black"></path><path d="M79.057 73.967H79.0251L79.4717 80.7431L80.62 98.0774C80.62 98.0774 81.3776 103.404 81.0745 108.15V108.166C80.9948 109.313 80.8592 110.427 80.636 111.423C80.2452 114.456 79.7189 118.915 79.5674 121.901C79.2803 128.884 79.4558 138.965 81.6327 149.619H86.9277L93.3629 96.4611C93.6021 94.4545 95.1411 94.6058 95.1411 94.6058C95.1491 94.6058 95.1571 94.6058 95.1651 94.6058C95.173 94.6058 95.181 94.6058 95.189 94.6058C95.189 94.6058 96.7201 94.4545 96.9673 96.4611L103.395 149.619H108.673C110.85 138.965 111.026 128.884 110.731 121.901C110.579 118.923 110.053 114.456 109.662 111.423C109.439 110.427 109.303 109.313 109.232 108.166V108.15C108.929 103.404 109.686 98.0774 109.686 98.0774L111.281 73.967H95.1651H79.057Z" fill="#7446AF"></path><path d="M80.9788 155.551C80.8911 156.029 80.939 156.323 81.1224 156.737H87.7968C87.7968 156.737 88.4906 156.339 88.5384 155.423C88.5464 155.24 88.5225 155.025 88.4667 154.794C88.4268 154.635 88.371 154.46 88.2912 154.277L86.9197 149.619H81.6248L80.9788 155.551Z" fill="black"></path><path d="M112.302 35.4285C111.329 28.8117 104.83 29.0187 104.798 29.0187L103.347 37.0051H103.339C102.924 41.8224 99.5351 46.0665 94.5751 47.3325C91.8878 48.0173 89.1845 47.6988 86.848 46.6318C86.8002 46.6238 86.7523 46.6079 86.7125 46.592L86.6885 46.5601C86.529 46.4805 86.3696 46.4088 86.2181 46.3212C85.0857 45.7241 84.065 44.9358 83.1719 44.0042C82.1113 42.8894 81.2581 41.5517 80.6999 40.0388C80.5643 39.6646 80.4367 39.2824 80.333 38.8843C80.0938 37.9527 79.9822 37.021 79.9742 36.1054L74.5597 49.7531C74.5118 49.8646 74.464 49.984 74.4161 50.1114C74.4082 50.1353 74.4002 50.1512 74.3922 50.1751C74.3603 50.2707 74.3284 50.3742 74.2965 50.4777C73.3237 53.2009 73.3077 55.4463 73.3555 56.354C73.3555 56.3779 73.3555 56.3938 73.3555 56.4177L73.3715 56.5929C73.3795 56.7282 73.3874 56.8158 73.3874 56.8158L74.2008 65.3198L79.3203 65.3278L79.1688 67.8439L79.0572 73.9591H95.1652H111.281L109.734 60.0566C115.571 60.5264 116.64 55.0243 116.64 55.0243L114.439 45.0791L112.302 35.4285Z" fill="#FF5D5D"></path><mask id="mask0" mask-type="alpha" maskUnits="userSpaceOnUse" x="73" y="29" width="44" height="45"><path d="M112.302 35.4285C111.329 28.8117 104.83 29.0187 104.798 29.0187L103.347 37.0051H103.339C102.924 41.8224 99.5351 46.0665 94.5751 47.3325C91.8878 48.0173 89.1845 47.6988 86.848 46.6318C86.8002 46.6238 86.7523 46.6079 86.7125 46.592L86.6885 46.5601C86.529 46.4805 86.3696 46.4088 86.2181 46.3212C85.0857 45.7241 84.065 44.9358 83.1719 44.0042C82.1113 42.8894 81.2581 41.5517 80.6999 40.0388C80.5643 39.6646 80.4367 39.2824 80.333 38.8843C80.0938 37.9527 79.9822 37.021 79.9742 36.1054L74.5597 49.7531C74.5118 49.8646 74.464 49.984 74.4161 50.1114C74.4082 50.1353 74.4002 50.1512 74.3922 50.1751C74.3603 50.2707 74.3284 50.3742 74.2965 50.4777C73.3237 53.2009 73.3077 55.4463 73.3555 56.354C73.3555 56.3779 73.3555 56.3938 73.3555 56.4177L73.3715 56.5929C73.3795 56.7282 73.3874 56.8158 73.3874 56.8158L74.2008 65.3198L79.3203 65.3278L79.1688 67.8439L79.0572 73.9591H95.1652H111.281L109.734 60.0566C115.571 60.5264 116.64 55.0243 116.64 55.0243L114.439 45.0791L112.302 35.4285Z" fill="#FF6666"></path></mask><g mask="url(#mask0)"><path d="M116.01 29.3372C116.481 29.3372 116.927 29.1302 117.238 28.7798L118.546 27.2829L116.56 27.3625C116.185 27.3784 115.803 27.3944 115.428 27.4023L113.458 27.466L114.854 28.8595C115.165 29.17 115.571 29.3372 116.01 29.3372Z" fill="#00AA6C"></path><path d="M116.01 57.206C115.109 57.206 114.375 57.9385 114.375 58.8383C114.375 59.7381 115.109 60.4706 116.01 60.4706C116.911 60.4706 117.645 59.7381 117.645 58.8383C117.645 57.9385 116.911 57.206 116.01 57.206Z" fill="#00AA6C"></path><path d="M116.01 49.4267C115.109 49.4267 114.375 50.1592 114.375 51.059C114.375 51.9588 115.109 52.6913 116.01 52.6913C116.911 52.6913 117.645 51.9588 117.645 51.059C117.645 50.1592 116.911 49.4267 116.01 49.4267Z" fill="#00AA6C"></path><path d="M116.01 64.9934C115.109 64.9934 114.375 65.726 114.375 66.6257C114.375 67.5255 115.109 68.258 116.01 68.258C116.911 68.258 117.645 67.5255 117.645 66.6257C117.645 65.726 116.911 64.9934 116.01 64.9934Z" fill="#00AA6C"></path><path d="M108.211 33.852C107.31 33.852 106.576 34.5845 106.576 35.4843C106.576 36.3841 107.31 37.1166 108.211 37.1166C109.112 37.1166 109.846 36.3841 109.846 35.4843C109.846 34.5845 109.112 33.852 108.211 33.852Z" fill="#00AA6C"></path><path d="M116.01 33.852C115.109 33.852 114.375 34.5845 114.375 35.4843C114.375 36.3841 115.109 37.1166 116.01 37.1166C116.911 37.1166 117.645 36.3841 117.645 35.4843C117.645 34.5845 116.911 33.852 116.01 33.852Z" fill="#00AA6C"></path><path d="M100.412 29.3373C100.755 29.3373 101.09 29.2258 101.377 29.0188L103.403 27.5377L100.891 27.474C100.58 27.4661 100.261 27.4581 99.9498 27.4501L97.4299 27.3785L99.3916 28.963C99.6867 29.2099 100.038 29.3373 100.412 29.3373Z" fill="#00AA6C"></path><path d="M108.211 29.3373C108.466 29.3373 108.713 29.2736 108.945 29.1542L112.19 27.5059L108.402 27.5378C108.227 27.5378 108.044 27.5378 107.868 27.5457L104.208 27.5696L107.501 29.1701C107.725 29.2816 107.964 29.3373 108.211 29.3373Z" fill="#00AA6C"></path><path d="M112.111 37.7457C111.209 37.7457 110.476 38.4782 110.476 39.378C110.476 40.2777 111.209 41.0103 112.111 41.0103C113.012 41.0103 113.745 40.2777 113.745 39.378C113.745 38.4782 113.012 37.7457 112.111 37.7457Z" fill="#00AA6C"></path><path d="M104.312 37.7457C103.411 37.7457 102.677 38.4782 102.677 39.378C102.677 40.2777 103.411 41.0103 104.312 41.0103C105.213 41.0103 105.946 40.2777 105.946 39.378C105.946 38.4782 105.213 37.7457 104.312 37.7457Z" fill="#00AA6C"></path><path d="M112.111 29.9663C111.209 29.9663 110.476 30.6989 110.476 31.5986C110.476 32.4984 111.209 33.2309 112.111 33.2309C113.012 33.2309 113.745 32.4984 113.745 31.5986C113.745 30.6989 113.012 29.9663 112.111 29.9663Z" fill="#00AA6C"></path><path d="M104.312 29.9663C103.411 29.9663 102.677 30.6989 102.677 31.5986C102.677 32.4984 103.411 33.2309 104.312 33.2309C105.213 33.2309 105.946 32.4984 105.946 31.5986C105.946 30.6989 105.213 29.9663 104.312 29.9663Z" fill="#00AA6C"></path><path d="M100.412 57.206C99.5112 57.206 98.7776 57.9385 98.7776 58.8383C98.7776 59.7381 99.5112 60.4706 100.412 60.4706C101.313 60.4706 102.047 59.7381 102.047 58.8383C102.047 57.9385 101.313 57.206 100.412 57.206Z" fill="#00AA6C"></path><path d="M108.211 57.206C107.31 57.206 106.576 57.9385 106.576 58.8383C106.576 59.7381 107.31 60.4706 108.211 60.4706C109.112 60.4706 109.846 59.7381 109.846 58.8383C109.846 57.9385 109.112 57.206 108.211 57.206Z" fill="#00AA6C"></path><path d="M100.412 49.4267C99.5112 49.4267 98.7776 50.1592 98.7776 51.059C98.7776 51.9588 99.5112 52.6913 100.412 52.6913C101.313 52.6913 102.047 51.9588 102.047 51.059C102.047 50.1592 101.313 49.4267 100.412 49.4267Z" fill="#00AA6C"></path><path d="M108.211 49.4267C107.31 49.4267 106.576 50.1592 106.576 51.059C106.576 51.9588 107.31 52.6913 108.211 52.6913C109.112 52.6913 109.846 51.9588 109.846 51.059C109.846 50.1592 109.112 49.4267 108.211 49.4267Z" fill="#00AA6C"></path><path d="M108.211 41.6393C107.31 41.6393 106.576 42.3718 106.576 43.2716C106.576 44.1714 107.31 44.9039 108.211 44.9039C109.112 44.9039 109.846 44.1714 109.846 43.2716C109.846 42.3718 109.112 41.6393 108.211 41.6393Z" fill="#00AA6C"></path><path d="M116.01 41.6393C115.109 41.6393 114.375 42.3718 114.375 43.2716C114.375 44.1714 115.109 44.9039 116.01 44.9039C116.911 44.9039 117.645 44.1714 117.645 43.2716C117.645 42.3718 116.911 41.6393 116.01 41.6393Z" fill="#00AA6C"></path><path d="M112.111 53.3204C111.209 53.3204 110.476 54.0529 110.476 54.9527C110.476 55.8525 111.209 56.585 112.111 56.585C113.012 56.585 113.745 55.8525 113.745 54.9527C113.745 54.0529 113.012 53.3204 112.111 53.3204Z" fill="#00AA6C"></path><path d="M104.312 53.3204C103.411 53.3204 102.677 54.0529 102.677 54.9527C102.677 55.8525 103.411 56.585 104.312 56.585C105.213 56.585 105.946 55.8525 105.946 54.9527C105.946 54.0529 105.213 53.3204 104.312 53.3204Z" fill="#00AA6C"></path><path d="M112.111 45.533C111.209 45.533 110.476 46.2655 110.476 47.1653C110.476 48.065 111.209 48.7976 112.111 48.7976C113.012 48.7976 113.745 48.065 113.745 47.1653C113.745 46.2655 113.012 45.533 112.111 45.533Z" fill="#00AA6C"></path><path d="M104.312 45.533C103.411 45.533 102.677 46.2655 102.677 47.1653C102.677 48.065 103.411 48.7976 104.312 48.7976C105.213 48.7976 105.946 48.065 105.946 47.1653C105.946 46.2655 105.213 45.533 104.312 45.533Z" fill="#00AA6C"></path><path d="M100.412 64.9934C99.5112 64.9934 98.7776 65.726 98.7776 66.6257C98.7776 67.5255 99.5112 68.258 100.412 68.258C101.313 68.258 102.047 67.5255 102.047 66.6257C102.047 65.726 101.313 64.9934 100.412 64.9934Z" fill="#00AA6C"></path><path d="M108.211 64.9934C107.31 64.9934 106.576 65.726 106.576 66.6257C106.576 67.5255 107.31 68.258 108.211 68.258C109.112 68.258 109.846 67.5255 109.846 66.6257C109.846 65.726 109.112 64.9934 108.211 64.9934Z" fill="#00AA6C"></path><path d="M112.111 68.887C111.209 68.887 110.476 69.6196 110.476 70.5193C110.476 71.4191 111.209 72.1516 112.111 72.1516C113.012 72.1516 113.745 71.4191 113.745 70.5193C113.745 69.6196 113.012 68.887 112.111 68.887Z" fill="#00AA6C"></path><path d="M104.312 68.887C103.411 68.887 102.677 69.6196 102.677 70.5193C102.677 71.4191 103.411 72.1516 104.312 72.1516C105.213 72.1516 105.946 71.4191 105.946 70.5193C105.946 69.6196 105.213 68.887 104.312 68.887Z" fill="#00AA6C"></path><path d="M112.111 61.0997C111.209 61.0997 110.476 61.8323 110.476 62.732C110.476 63.6318 111.209 64.3644 112.111 64.3644C113.012 64.3644 113.745 63.6318 113.745 62.732C113.745 61.8323 113.012 61.0997 112.111 61.0997Z" fill="#00AA6C"></path><path d="M104.312 61.0997C103.411 61.0997 102.677 61.8323 102.677 62.732C102.677 63.6318 103.411 64.3644 104.312 64.3644C105.213 64.3644 105.946 63.6318 105.946 62.732C105.946 61.8323 105.213 61.0997 104.312 61.0997Z" fill="#00AA6C"></path><path d="M108.211 72.7807C107.31 72.7807 106.576 73.5132 106.576 74.413C106.576 75.3128 107.31 76.0453 108.211 76.0453C109.112 76.0453 109.846 75.3128 109.846 74.413C109.846 73.5132 109.112 72.7807 108.211 72.7807Z" fill="#00AA6C"></path><path d="M116.01 72.7807C115.109 72.7807 114.375 73.5132 114.375 74.413C114.375 75.3128 115.109 76.0453 116.01 76.0453C116.911 76.0453 117.645 75.3128 117.645 74.413C117.645 73.5132 116.911 72.7807 116.01 72.7807Z" fill="#00AA6C"></path><path d="M92.6215 33.852C91.7204 33.852 90.9868 34.5845 90.9868 35.4843C90.9868 36.3841 91.7204 37.1166 92.6215 37.1166C93.5226 37.1166 94.2563 36.3841 94.2563 35.4843C94.2563 34.5845 93.5226 33.852 92.6215 33.852Z" fill="#00AA6C"></path><path d="M100.412 33.852C99.5112 33.852 98.7776 34.5845 98.7776 35.4843C98.7776 36.3841 99.5112 37.1166 100.412 37.1166C101.313 37.1166 102.047 36.3841 102.047 35.4843C102.047 34.5845 101.313 33.852 100.412 33.852Z" fill="#00AA6C"></path><path d="M91.9278 27.0918L90.6838 27.0201L91.0666 28.2066C91.2819 28.8834 91.9119 29.3372 92.6216 29.3372C93.2595 29.3372 93.8496 28.963 94.1128 28.3738L94.6232 27.2351L93.3792 27.1635C92.8927 27.1396 92.4143 27.1157 91.9278 27.0918Z" fill="#00AA6C"></path><path d="M96.5129 37.7457C95.6118 37.7457 94.8782 38.4782 94.8782 39.378C94.8782 40.2777 95.6118 41.0103 96.5129 41.0103C97.414 41.0103 98.1476 40.2777 98.1476 39.378C98.1556 38.4782 97.422 37.7457 96.5129 37.7457Z" fill="#00AA6C"></path><path d="M88.7221 37.7457C87.821 37.7457 87.0874 38.4782 87.0874 39.378C87.0874 40.2777 87.821 41.0103 88.7221 41.0103C89.6232 41.0103 90.3568 40.2777 90.3568 39.378C90.3568 38.4782 89.6232 37.7457 88.7221 37.7457Z" fill="#00AA6C"></path><path d="M96.5129 29.9663C95.6118 29.9663 94.8782 30.6989 94.8782 31.5986C94.8782 32.4984 95.6118 33.2309 96.5129 33.2309C97.414 33.2309 98.1476 32.4984 98.1476 31.5986C98.1556 30.6989 97.422 29.9663 96.5129 29.9663Z" fill="#00AA6C"></path><path d="M88.7221 29.9663C87.821 29.9663 87.0874 30.6989 87.0874 31.5986C87.0874 32.4984 87.821 33.2309 88.7221 33.2309C89.6232 33.2309 90.3568 32.4984 90.3568 31.5986C90.3568 30.6989 89.6232 29.9663 88.7221 29.9663Z" fill="#00AA6C"></path><path d="M84.8227 57.206C83.9216 57.206 83.188 57.9385 83.188 58.8383C83.188 59.7381 83.9216 60.4706 84.8227 60.4706C85.7238 60.4706 86.4574 59.7381 86.4574 58.8383C86.4574 57.9385 85.7238 57.206 84.8227 57.206Z" fill="#00AA6C"></path><path d="M92.6215 57.206C91.7204 57.206 90.9868 57.9385 90.9868 58.8383C90.9868 59.7381 91.7204 60.4706 92.6215 60.4706C93.5226 60.4706 94.2563 59.7381 94.2563 58.8383C94.2563 57.9385 93.5226 57.206 92.6215 57.206Z" fill="#00AA6C"></path><path d="M92.6215 49.4267C91.7204 49.4267 90.9868 50.1592 90.9868 51.059C90.9868 51.9588 91.7204 52.6913 92.6215 52.6913C93.5226 52.6913 94.2563 51.9588 94.2563 51.059C94.2563 50.1592 93.5226 49.4267 92.6215 49.4267Z" fill="#00AA6C"></path><path d="M92.6215 41.6393C91.7204 41.6393 90.9868 42.3718 90.9868 43.2716C90.9868 44.1714 91.7204 44.9039 92.6215 44.9039C93.5226 44.9039 94.2563 44.1714 94.2563 43.2716C94.2563 42.3718 93.5226 41.6393 92.6215 41.6393Z" fill="#00AA6C"></path><path d="M100.412 41.6393C99.5112 41.6393 98.7776 42.3718 98.7776 43.2716C98.7776 44.1714 99.5112 44.9039 100.412 44.9039C101.313 44.9039 102.047 44.1714 102.047 43.2716C102.047 42.3718 101.313 41.6393 100.412 41.6393Z" fill="#00AA6C"></path><path d="M96.5129 53.3204C95.6118 53.3204 94.8782 54.0529 94.8782 54.9527C94.8782 55.8525 95.6118 56.585 96.5129 56.585C97.414 56.585 98.1476 55.8525 98.1476 54.9527C98.1556 54.0529 97.422 53.3204 96.5129 53.3204Z" fill="#00AA6C"></path><path d="M88.7221 53.3204C87.821 53.3204 87.0874 54.0529 87.0874 54.9527C87.0874 55.8525 87.821 56.585 88.7221 56.585C89.6232 56.585 90.3568 55.8525 90.3568 54.9527C90.3568 54.0529 89.6232 53.3204 88.7221 53.3204Z" fill="#00AA6C"></path><path d="M96.5129 45.533C95.6118 45.533 94.8782 46.2655 94.8782 47.1653C94.8782 48.065 95.6118 48.7976 96.5129 48.7976C97.414 48.7976 98.1476 48.065 98.1476 47.1653C98.1556 46.2655 97.422 45.533 96.5129 45.533Z" fill="#00AA6C"></path><path d="M88.7221 45.533C87.821 45.533 87.0874 46.2655 87.0874 47.1653C87.0874 48.065 87.821 48.7976 88.7221 48.7976C89.6232 48.7976 90.3568 48.065 90.3568 47.1653C90.3568 46.2655 89.6232 45.533 88.7221 45.533Z" fill="#00AA6C"></path><path d="M84.8227 72.7807C83.9216 72.7807 83.188 73.5132 83.188 74.413C83.188 75.3128 83.9216 76.0453 84.8227 76.0453C85.7238 76.0453 86.4574 75.3128 86.4574 74.413C86.4574 73.5132 85.7238 72.7807 84.8227 72.7807Z" fill="#00AA6C"></path><path d="M92.6215 72.7807C91.7204 72.7807 90.9868 73.5132 90.9868 74.413C90.9868 75.3128 91.7204 76.0453 92.6215 76.0453C93.5226 76.0453 94.2563 75.3128 94.2563 74.413C94.2563 73.5132 93.5226 72.7807 92.6215 72.7807Z" fill="#00AA6C"></path><path d="M84.8227 64.9934C83.9216 64.9934 83.188 65.726 83.188 66.6257C83.188 67.5255 83.9216 68.258 84.8227 68.258C85.7238 68.258 86.4574 67.5255 86.4574 66.6257C86.4574 65.726 85.7238 64.9934 84.8227 64.9934Z" fill="#00AA6C"></path><path d="M92.6215 64.9934C91.7204 64.9934 90.9868 65.726 90.9868 66.6257C90.9868 67.5255 91.7204 68.258 92.6215 68.258C93.5226 68.258 94.2563 67.5255 94.2563 66.6257C94.2563 65.726 93.5226 64.9934 92.6215 64.9934Z" fill="#00AA6C"></path><path d="M96.5129 68.887C95.6118 68.887 94.8782 69.6196 94.8782 70.5193C94.8782 71.4191 95.6118 72.1516 96.5129 72.1516C97.414 72.1516 98.1476 71.4191 98.1476 70.5193C98.1556 69.6196 97.422 68.887 96.5129 68.887Z" fill="#00AA6C"></path><path d="M88.7221 68.887C87.821 68.887 87.0874 69.6196 87.0874 70.5193C87.0874 71.4191 87.821 72.1516 88.7221 72.1516C89.6232 72.1516 90.3568 71.4191 90.3568 70.5193C90.3568 69.6196 89.6232 68.887 88.7221 68.887Z" fill="#00AA6C"></path><path d="M96.5129 61.0997C95.6118 61.0997 94.8782 61.8323 94.8782 62.732C94.8782 63.6318 95.6118 64.3644 96.5129 64.3644C97.414 64.3644 98.1476 63.6318 98.1476 62.732C98.1556 61.8323 97.422 61.0997 96.5129 61.0997Z" fill="#00AA6C"></path><path d="M88.7221 61.0997C87.821 61.0997 87.0874 61.8323 87.0874 62.732C87.0874 63.6318 87.821 64.3644 88.7221 64.3644C89.6232 64.3644 90.3568 63.6318 90.3568 62.732C90.3568 61.8323 89.6232 61.0997 88.7221 61.0997Z" fill="#00AA6C"></path><path d="M100.412 72.7807C99.5112 72.7807 98.7776 73.5132 98.7776 74.413C98.7776 75.3128 99.5112 76.0453 100.412 76.0453C101.313 76.0453 102.047 75.3128 102.047 74.413C102.047 73.5132 101.313 72.7807 100.412 72.7807Z" fill="#00AA6C"></path><path d="M77.558 26.1602L77.4623 26.1283L77.3586 26.1204C77.2948 26.1124 77.231 26.1124 77.1593 26.1045C77.1035 26.0965 77.0397 26.0965 76.9838 26.0885L76.8802 26.0806L76.7765 26.0965C75.9711 26.2239 75.397 26.9007 75.397 27.7049C75.397 28.6047 76.1306 29.3372 77.0317 29.3372C77.9328 29.3372 78.6664 28.6047 78.6664 27.7049C78.6584 27.0042 78.2198 26.3911 77.558 26.1602Z" fill="#00AA6C"></path><path d="M86.3218 26.7574L85.644 26.7176C85.1416 26.6857 84.6392 26.6539 84.1368 26.622L83.467 26.5822L83.2597 27.2192C83.2039 27.3864 83.1799 27.5536 83.1799 27.7129C83.1799 28.6127 83.9136 29.3452 84.8147 29.3452C85.7158 29.3452 86.4494 28.6127 86.4494 27.7129C86.4494 27.6014 86.4334 27.4979 86.4255 27.4342L86.3218 26.7574Z" fill="#00AA6C"></path><path d="M77.0239 41.6393C76.1228 41.6393 75.3892 42.3718 75.3892 43.2716C75.3892 44.1714 76.1228 44.9039 77.0239 44.9039C77.925 44.9039 78.6586 44.1714 78.6586 43.2716C78.6586 42.3718 77.925 41.6393 77.0239 41.6393Z" fill="#00AA6C"></path><path d="M77.0239 33.852C76.1228 33.852 75.3892 34.5845 75.3892 35.4843C75.3892 36.3841 76.1228 37.1166 77.0239 37.1166C77.925 37.1166 78.6586 36.3841 78.6586 35.4843C78.6586 34.5845 77.925 33.852 77.0239 33.852Z" fill="#00AA6C"></path><path d="M84.8227 33.852C83.9216 33.852 83.188 34.5845 83.188 35.4843C83.188 36.3841 83.9216 37.1166 84.8227 37.1166C85.7238 37.1166 86.4574 36.3841 86.4574 35.4843C86.4574 34.5845 85.7238 33.852 84.8227 33.852Z" fill="#00AA6C"></path><path d="M80.9233 37.7457C80.0222 37.7457 79.2886 38.4782 79.2886 39.378C79.2886 40.2777 80.0222 41.0103 80.9233 41.0103C81.8244 41.0103 82.558 40.2777 82.558 39.378C82.558 38.4782 81.8244 37.7457 80.9233 37.7457Z" fill="#00AA6C"></path><path d="M73.1245 37.7457C72.2234 37.7457 71.4897 38.4782 71.4897 39.378C71.4897 40.2777 72.2234 41.0103 73.1245 41.0103C74.0256 41.0103 74.7592 40.2777 74.7592 39.378C74.7592 38.4782 74.0335 37.7457 73.1245 37.7457Z" fill="#00AA6C"></path><path d="M80.9233 29.9663C80.0222 29.9663 79.2886 30.6989 79.2886 31.5986C79.2886 32.4984 80.0222 33.2309 80.9233 33.2309C81.8244 33.2309 82.558 32.4984 82.558 31.5986C82.558 30.6989 81.8244 29.9663 80.9233 29.9663Z" fill="#00AA6C"></path><path d="M73.1245 29.9663C72.2234 29.9663 71.4897 30.6989 71.4897 31.5986C71.4897 32.4984 72.2234 33.2309 73.1245 33.2309C74.0256 33.2309 74.7592 32.4984 74.7592 31.5986C74.7592 30.6989 74.0335 29.9663 73.1245 29.9663Z" fill="#00AA6C"></path><path d="M77.0239 57.206C76.1228 57.206 75.3892 57.9385 75.3892 58.8383C75.3892 59.7381 76.1228 60.4706 77.0239 60.4706C77.925 60.4706 78.6586 59.7381 78.6586 58.8383C78.6586 57.9385 77.925 57.206 77.0239 57.206Z" fill="#00AA6C"></path><path d="M77.0239 49.4267C76.1228 49.4267 75.3892 50.1592 75.3892 51.059C75.3892 51.9588 76.1228 52.6913 77.0239 52.6913C77.925 52.6913 78.6586 51.9588 78.6586 51.059C78.6586 50.1592 77.925 49.4267 77.0239 49.4267Z" fill="#00AA6C"></path><path d="M84.8227 49.4267C83.9216 49.4267 83.188 50.1592 83.188 51.059C83.188 51.9588 83.9216 52.6913 84.8227 52.6913C85.7238 52.6913 86.4574 51.9588 86.4574 51.059C86.4574 50.1592 85.7238 49.4267 84.8227 49.4267Z" fill="#00AA6C"></path><path d="M84.8227 41.6393C83.9216 41.6393 83.188 42.3718 83.188 43.2716C83.188 44.1714 83.9216 44.9039 84.8227 44.9039C85.7238 44.9039 86.4574 44.1714 86.4574 43.2716C86.4574 42.3718 85.7238 41.6393 84.8227 41.6393Z" fill="#00AA6C"></path><path d="M80.9233 53.3204C80.0222 53.3204 79.2886 54.0529 79.2886 54.9527C79.2886 55.8525 80.0222 56.585 80.9233 56.585C81.8244 56.585 82.558 55.8525 82.558 54.9527C82.558 54.0529 81.8244 53.3204 80.9233 53.3204Z" fill="#00AA6C"></path><path d="M73.1245 53.3204C72.2234 53.3204 71.4897 54.0529 71.4897 54.9527C71.4897 55.8525 72.2234 56.585 73.1245 56.585C74.0256 56.585 74.7592 55.8525 74.7592 54.9527C74.7592 54.0529 74.0335 53.3204 73.1245 53.3204Z" fill="#00AA6C"></path><path d="M80.9233 45.533C80.0222 45.533 79.2886 46.2655 79.2886 47.1653C79.2886 48.065 80.0222 48.7976 80.9233 48.7976C81.8244 48.7976 82.558 48.065 82.558 47.1653C82.558 46.2655 81.8244 45.533 80.9233 45.533Z" fill="#00AA6C"></path><path d="M73.1245 45.533C72.2234 45.533 71.4897 46.2655 71.4897 47.1653C71.4897 48.065 72.2234 48.7976 73.1245 48.7976C74.0256 48.7976 74.7592 48.065 74.7592 47.1653C74.7592 46.2655 74.0335 45.533 73.1245 45.533Z" fill="#00AA6C"></path><path d="M77.0239 72.7807C76.1228 72.7807 75.3892 73.5132 75.3892 74.413C75.3892 75.3128 76.1228 76.0453 77.0239 76.0453C77.925 76.0453 78.6586 75.3128 78.6586 74.413C78.6586 73.5132 77.925 72.7807 77.0239 72.7807Z" fill="#00AA6C"></path><path d="M77.0239 64.9934C76.1228 64.9934 75.3892 65.726 75.3892 66.6257C75.3892 67.5255 76.1228 68.258 77.0239 68.258C77.925 68.258 78.6586 67.5255 78.6586 66.6257C78.6586 65.726 77.925 64.9934 77.0239 64.9934Z" fill="#00AA6C"></path><path d="M80.9233 68.887C80.0222 68.887 79.2886 69.6196 79.2886 70.5193C79.2886 71.4191 80.0222 72.1516 80.9233 72.1516C81.8244 72.1516 82.558 71.4191 82.558 70.5193C82.558 69.6196 81.8244 68.887 80.9233 68.887Z" fill="#00AA6C"></path><path d="M73.1245 68.887C72.2234 68.887 71.4897 69.6196 71.4897 70.5193C71.4897 71.4191 72.2234 72.1516 73.1245 72.1516C74.0256 72.1516 74.7592 71.4191 74.7592 70.5193C74.7592 69.6196 74.0335 68.887 73.1245 68.887Z" fill="#00AA6C"></path><path d="M80.9233 61.0997C80.0222 61.0997 79.2886 61.8323 79.2886 62.732C79.2886 63.6318 80.0222 64.3644 80.9233 64.3644C81.8244 64.3644 82.558 63.6318 82.558 62.732C82.558 61.8323 81.8244 61.0997 80.9233 61.0997Z" fill="#00AA6C"></path><path d="M73.1245 61.0997C72.2234 61.0997 71.4897 61.8323 71.4897 62.732C71.4897 63.6318 72.2234 64.3644 73.1245 64.3644C74.0256 64.3644 74.7592 63.6318 74.7592 62.732C74.7592 61.8323 74.0335 61.0997 73.1245 61.0997Z" fill="#00AA6C"></path></g></svg>